<svg width="20" height="20" viewBox="0 0 20 20" fill="none" xmlns="http://www.w3.org/2000/svg">
<mask id="mask0_1319_9813" style="mask-type:alpha" maskUnits="userSpaceOnUse" x="0" y="0" width="20" height="20">
<path d="M7.5 2.5C10.2614 2.5 12.5 4.73858 12.5 7.5C12.5 8.57975 12.1558 9.5782 11.5739 10.3955L16.5951 15.4167L15.4167 16.5951L10.3955 11.5739C9.5782 12.1558 8.57975 12.5 7.5 12.5C4.73858 12.5 2.5 10.2614 2.5 7.5C2.5 4.73858 4.73858 2.5 7.5 2.5ZM7.5 4.16667C5.65905 4.16667 4.16667 5.65905 4.16667 7.5C4.16667 9.34095 5.65905 10.8333 7.5 10.8333C9.34095 10.8333 10.8333 9.34095 10.8333 7.5C10.8333 5.65905 9.34095 4.16667 7.5 4.16667Z" fill="black"/>
</mask>
<g mask="url(#mask0_1319_9813)">
<rect width="20" height="20" fill="#D2D3D5"/>
</g>
</svg>
