<svg width="33" height="24" viewBox="0 0 33 24" fill="none" xmlns="http://www.w3.org/2000/svg">
<g clip-path="url(#clip0_1696_21135)">
<path d="M2.95312 6.6875V18H0.953125V6.6875H2.95312ZM8.7225 18.1719C6.25375 18.1719 4.66 16.4219 4.66 13.7969C4.66 11.1562 6.25375 9.40625 8.7225 9.40625C11.2069 9.40625 12.785 11.1562 12.785 13.7969C12.785 16.4219 11.2069 18.1719 8.7225 18.1719ZM8.73812 16.5781C10.0975 16.5781 10.7694 15.3438 10.7694 13.7812C10.7694 12.2344 10.0975 10.9844 8.73812 10.9844C7.3475 10.9844 6.67562 12.2344 6.67562 13.7812C6.67562 15.3438 7.3475 16.5781 8.73812 16.5781ZM18.195 21.3594C15.945 21.3594 14.5231 20.3594 14.3825 18.7656H16.3669C16.5075 19.5 17.2106 19.8594 18.2262 19.8594C19.4137 19.8594 20.195 19.3438 20.195 18.0938V16.4688H20.1012C19.7887 17.0938 19.1169 17.875 17.6481 17.875C15.695 17.875 14.1481 16.4531 14.1481 13.6875C14.1481 10.8906 15.695 9.40625 17.6637 9.40625C19.1637 9.40625 19.7887 10.2969 20.1012 10.9062H20.195V9.51562H22.1637V18.1406C22.1637 20.3125 20.4919 21.3594 18.195 21.3594ZM18.195 16.3125C19.4762 16.3125 20.2106 15.3438 20.2106 13.7188C20.2106 12.1094 19.4919 11.0312 18.195 11.0312C16.8669 11.0312 16.1794 12.1719 16.1794 13.7188C16.1794 15.2812 16.8825 16.3125 18.195 16.3125ZM27.9331 18.1719C25.4644 18.1719 23.8706 16.4219 23.8706 13.7969C23.8706 11.1562 25.4644 9.40625 27.9331 9.40625C30.4175 9.40625 31.9956 11.1562 31.9956 13.7969C31.9956 16.4219 30.4175 18.1719 27.9331 18.1719ZM27.9487 16.5781C29.3081 16.5781 29.98 15.3438 29.98 13.7812C29.98 12.2344 29.3081 10.9844 27.9487 10.9844C26.5581 10.9844 25.8862 12.2344 25.8862 13.7812C25.8862 15.3438 26.5581 16.5781 27.9487 16.5781Z" fill="#606266"/>
</g>
<defs>
<clipPath id="clip0_1696_21135">
<rect width="33" height="24" fill="white"/>
</clipPath>
</defs>
</svg>
