<svg width="48" height="20" viewBox="0 0 48 20" fill="none" xmlns="http://www.w3.org/2000/svg">
<path d="M40.6327 13.3002C39.7466 13.3002 38.9798 13.0987 38.3324 12.6957C37.6967 12.2926 37.2353 11.7456 36.9484 11.0547C36.6632 10.3522 36.5881 9.57493 36.7231 8.72277C36.8544 7.89365 37.1721 7.13938 37.6761 6.45996C38.182 5.76902 38.8157 5.22779 39.5773 4.83626C40.3523 4.43321 41.1829 4.23169 42.069 4.23169C42.9318 4.23169 43.682 4.42745 44.3196 4.81898C44.9706 5.199 45.4455 5.73448 45.7441 6.42541C46.0446 7.10483 46.1273 7.87062 45.9923 8.72277C45.8574 9.57493 45.5302 10.3522 45.0109 11.0547C44.4934 11.7456 43.8471 12.2926 43.072 12.6957C42.3086 13.0987 41.4955 13.3002 40.6327 13.3002ZM40.9473 11.3138C41.4137 11.3138 41.8575 11.1986 42.2788 10.9683C42.7 10.738 43.0524 10.4271 43.3359 10.0356C43.6311 9.64402 43.817 9.20643 43.8936 8.72277C43.9739 8.21609 43.9284 7.76698 43.7573 7.37545C43.5977 6.98392 43.3429 6.67876 42.9928 6.45996C42.6427 6.24116 42.2345 6.13176 41.7681 6.13176C41.0336 6.13176 40.388 6.37935 39.8316 6.87452C39.2751 7.36969 38.9385 7.98578 38.8218 8.72277C38.705 9.45977 38.8465 10.0759 39.2461 10.571C39.6457 11.0662 40.2128 11.3138 40.9473 11.3138Z" fill="#909398"/>
<path d="M30.1833 13.3002C29.2971 13.3002 28.5304 13.0987 27.883 12.6957C27.2473 12.2926 26.7859 11.7456 26.4989 11.0547C26.2138 10.3522 26.1387 9.57493 26.2736 8.72277C26.405 7.89365 26.7227 7.13938 27.2267 6.45996C27.7325 5.76902 28.3663 5.22779 29.1278 4.83626C29.9029 4.43321 30.7335 4.23169 31.6196 4.23169C32.4824 4.23169 33.2326 4.42745 33.8701 4.81898C34.5212 5.199 34.996 5.73448 35.2947 6.42541C35.5951 7.10483 35.6779 7.87062 35.5429 8.72277C35.4079 9.57493 35.0808 10.3522 34.5614 11.0547C34.0439 11.7456 33.3976 12.2926 32.6226 12.6957C31.8592 13.0987 31.0461 13.3002 30.1833 13.3002ZM30.4979 11.3138C30.9643 11.3138 31.4081 11.1986 31.8293 10.9683C32.2506 10.738 32.603 10.4271 32.8865 10.0356C33.1817 9.64402 33.3676 9.20643 33.4442 8.72277C33.5245 8.21609 33.479 7.76698 33.3078 7.37545C33.1483 6.98392 32.8935 6.67876 32.5434 6.45996C32.1933 6.24116 31.785 6.13176 31.3187 6.13176C30.5841 6.13176 29.9386 6.37935 29.3821 6.87452C28.8257 7.36969 28.4891 7.98578 28.3723 8.72277C28.2556 9.45977 28.3971 10.0759 28.7967 10.571C29.1963 11.0662 29.7633 11.3138 30.4979 11.3138Z" fill="#909398"/>
<path d="M25.9635 0L23.8842 13.1278H21.7855L23.8648 0H25.9635Z" fill="#909398"/>
<path d="M15.4206 13.3002C14.5345 13.3002 13.7677 13.0987 13.1203 12.6957C12.4846 12.2926 12.0233 11.7456 11.7363 11.0547C11.4511 10.3522 11.376 9.57493 11.511 8.72277C11.6423 7.89365 11.96 7.13938 12.464 6.45996C12.9699 5.76902 13.6036 5.22779 14.3652 4.83626C15.1402 4.43321 15.9708 4.23169 16.8569 4.23169C17.7197 4.23169 18.4699 4.42745 19.1075 4.81898C19.7585 5.199 20.2334 5.73448 20.532 6.42541C20.8325 7.10483 20.9152 7.87062 20.7802 8.72277C20.6453 9.57493 20.3181 10.3522 19.7988 11.0547C19.2813 11.7456 18.635 12.2926 17.8599 12.6957C17.0965 13.0987 16.2834 13.3002 15.4206 13.3002ZM15.7352 11.3138C16.2016 11.3138 16.6454 11.1986 17.0667 10.9683C17.4879 10.738 17.8403 10.4271 18.1238 10.0356C18.419 9.64402 18.6049 9.20643 18.6815 8.72277C18.7618 8.21609 18.7163 7.76698 18.5452 7.37545C18.3856 6.98392 18.1308 6.67876 17.7807 6.45996C17.4306 6.24116 17.0224 6.13176 16.556 6.13176C15.8215 6.13176 15.1759 6.37935 14.6195 6.87452C14.063 7.36969 13.7264 7.98578 13.6097 8.72277C13.493 9.45977 13.6344 10.0759 14.034 10.571C14.4336 11.0662 15.0007 11.3138 15.7352 11.3138Z" fill="#909398"/>
<path d="M4.28477 13.3005C3.48026 13.3005 2.78347 13.099 2.19438 12.696C1.60528 12.2929 1.17891 11.7459 0.915239 11.055C0.653397 10.3525 0.589962 9.57522 0.724934 8.72307C0.859905 7.87091 1.16775 7.10513 1.64846 6.42571C2.131 5.73477 2.72883 5.19929 3.44195 4.81928C4.15689 4.42775 4.91662 4.23198 5.72112 4.23198C6.24579 4.23198 6.73656 4.33562 7.19343 4.54291C7.65212 4.73867 8.00568 5.00929 8.2541 5.35475L9.10224 0H11.1135L9.0342 13.1278H7.02295L7.1871 12.0914C6.80227 12.4599 6.35934 12.7535 5.85831 12.9723C5.35727 13.1911 4.83276 13.3005 4.28477 13.3005ZM4.94918 11.3141C5.6604 11.3141 6.28077 11.078 6.81027 10.6059C7.35325 10.1222 7.68584 9.49461 7.80805 8.72307C7.93025 7.95152 7.79556 7.32968 7.40396 6.85754C7.02585 6.37389 6.48118 6.13206 5.76995 6.13206C5.02375 6.13206 4.37332 6.37389 3.81868 6.85754C3.27752 7.32968 2.94584 7.95152 2.82363 8.72307C2.70143 9.49461 2.83521 10.1222 3.22499 10.6059C3.62824 11.078 4.20297 11.3141 4.94918 11.3141Z" fill="#909398"/>
<path d="M47.1911 3.4852L45.1877 12.7078C44.9012 14.0273 44.1703 15.3064 42.8922 16.0599C40.3766 17.543 34.8691 20 26.0209 20C19.7999 20 15.394 18.9991 12.5185 17.9762C11.0817 17.465 10.0303 16.9489 9.32763 16.5531C8.97655 16.3553 8.71297 16.1872 8.53217 16.065C8.44177 16.0039 8.37155 15.9541 8.32209 15.9177C8.2976 15.8997 8.27781 15.8854 8.26317 15.8742C8.25607 15.8688 8.25002 15.8638 8.24524 15.8601C8.24299 15.8583 8.23883 15.855 8.23883 15.855L8.23627 15.8524C8.23627 15.8524 8.23367 15.8512 8.846 15.0813L9.45573 14.3102L9.45829 14.3115C9.46311 14.3152 9.47225 14.3228 9.48647 14.3333C9.51546 14.3545 9.565 14.3892 9.63378 14.4357C9.77135 14.5287 9.99008 14.6683 10.2935 14.8392C10.9006 15.1812 11.8501 15.6489 13.1782 16.1214C15.8333 17.0659 20.0152 18.0325 26.0209 18.0325C34.4856 18.0325 39.6514 15.6869 41.8931 14.3653C42.59 13.9544 43.065 13.2111 43.265 12.2902L45.2671 3.06763L47.1911 3.4852Z" fill="#909398"/>
</svg>
